<?xml version="1.0" encoding="UTF-8"?>
<svg version="1.1" xmlns="http://www.w3.org/2000/svg" width="875" height="875">
<path d="M0 0 C1.65 0 3.3 0 5 0 C5.33 0.99 5.66 1.98 6 3 C5.67 3.66 5.34 4.32 5 5 C8.63 5 12.26 5 16 5 C16 5.66 16 6.32 16 7 C16.66 6.34 17.32 5.68 18 5 C18.350625 5.680625 18.70125 6.36125 19.0625 7.0625 C21.58283826 10.883658 24.69417202 13.85719915 28 17 C28.66 16.34 29.32 15.68 30 15 C30.185625 15.9590625 30.185625 15.9590625 30.375 16.9375 C30.58125 17.618125 30.7875 18.29875 31 19 C31.66 19.33 32.32 19.66 33 20 C32.34 20.33 31.68 20.66 31 21 C31.66 21.66 32.32 22.32 33 23 C33 26.96 33 30.92 33 35 C62.7 35 92.4 35 123 35 C122.67 35.99 122.34 36.98 122 38 C121.0409375 37.7215625 121.0409375 37.7215625 120.0625 37.4375 C119.381875 37.293125 118.70125 37.14875 118 37 C117.67 37.33 117.34 37.66 117 38 C114.68856033 38.07305435 112.37499731 38.08362942 110.0625 38.0625 C108.79535156 38.05347656 107.52820313 38.04445312 106.22265625 38.03515625 C105.15917969 38.02355469 104.09570312 38.01195312 103 38 C102.34 38 101.68 38 101 38 C110.57 38.33 120.14 38.66 130 39 C130 38.01 130 37.02 130 36 C134 36 134 36 136.6875 38.25 C138.8730938 40.84908452 139.32740083 41.86120385 140 45 C140.99 45.33 141.98 45.66 143 46 C144.4783226 48.95664519 144.06032783 51.74229737 144 55 C143.34 55 142.68 55 142 55 C142.33 56.32 142.66 57.64 143 59 C142.01 59 141.02 59 140 59 C139.67 59.66 139.34 60.32 139 61 C139.33 61.66 139.66 62.32 140 63 C138.68 63 137.36 63 136 63 C136.0928125 64.670625 136.0928125 64.670625 136.1875 66.375 C136.125625 67.57125 136.06375 68.7675 136 70 C134.515 70.99 134.515 70.99 133 72 C132.67 72.99 132.34 73.98 132 75 C131.34 75.33 130.68 75.66 130 76 C130 76.99 130 77.98 130 79 C129.01 79 128.02 79 127 79 C126.67 80.32 126.34 81.64 126 83 C125.01 82.67 124.02 82.34 123 82 C123.33 83.98 123.66 85.96 124 88 C122.35 88 120.7 88 119 88 C119 88.99 119 89.98 119 91 C118.360625 91.20625 117.72125 91.4125 117.0625 91.625 C114.65074923 92.89538209 114.65074923 92.89538209 114.25 96.125 C114.1675 97.07375 114.085 98.0225 114 99 C112.68 99 111.36 99 110 99 C109.67 99.99 109.34 100.98 109 102 C108.01 102 107.02 102 106 102 C106 102.66 106 103.32 106 104 C105.360625 104.61875 104.72125 105.2375 104.0625 105.875 C101.96582769 108.03520783 101.41603326 109.08776721 101 112 C100.01 112 99.02 112 98 112 C97.773125 113.051875 97.54625 114.10375 97.3125 115.1875 C96.16917315 119.18508963 94.25480652 121.36515663 91 124 C89.6757713 124.36784131 88.34386088 124.71202981 87 125 C86.67 125.99 86.34 126.98 86 128 C85.01 128.33 84.02 128.66 83 129 C83 129.66 83 130.32 83 131 C82.01 131 81.02 131 80 131 C80 131.99 80 132.98 80 134 C79.01 134.33 78.02 134.66 77 135 C77.66 135.66 78.32 136.32 79 137 C78.01 137.33 77.02 137.66 76 138 C74.79117904 140.00016466 74.79117904 140.00016466 74 142 C73.01 142 72.02 142 71 142 C71 142.99 71 143.98 71 145 C69.3203125 146.71875 69.3203125 146.71875 67.125 148.5 C63.61219154 151.37068218 61.47067884 153.58796347 60 158 C58.68 157.34 57.36 156.68 56 156 C56 156.66 56 157.32 56 158 C54.33333333 159.33333333 52.66666667 160.66666667 51 162 C47.73099053 165.28667979 46 167.13096197 46 172 C44.68 172.66 43.36 173.32 42 174 C42 174.99 42 175.98 42 177 C41.34 177.33 40.68 177.66 40 178 C39.01 177.67 38.02 177.34 37 177 C36.67 178.32 36.34 179.64 36 181 C35.01 181 34.02 181 33 181 C33 181.99 33 182.98 33 184 C31.68 184.33 30.36 184.66 29 185 C29 185.66 29 186.32 29 187 C29.66 187.33 30.32 187.66 31 188 C28.45408402 190.66222914 25.88566954 193.30162485 23.3125 195.9375 C22.59126953 196.69224609 21.87003906 197.44699219 21.12695312 198.22460938 C20.42119141 198.94326172 19.71542969 199.66191406 18.98828125 200.40234375 C18.34415283 201.06741943 17.70002441 201.73249512 17.03637695 202.41772461 C14.68536845 204.24447033 12.92558822 204.64235406 10 205 C9.67 206.32 9.34 207.64 9 209 C7.68 209.33 6.36 209.66 5 210 C5 210.99 5 211.98 5 213 C4.360625 213.268125 3.72125 213.53625 3.0625 213.8125 C0.66868314 214.88667752 0.66868314 214.88667752 0 218 C-0.99 218.33 -1.98 218.66 -3 219 C-3.33 219.99 -3.66 220.98 -4 222 C-4.66 222 -5.32 222 -6 222 C-6.37318359 222.91652344 -6.37318359 222.91652344 -6.75390625 223.8515625 C-8.21342941 226.36798174 -9.39070687 227.03757791 -11.9375 228.375 C-15.80576718 230.628564 -17.40885798 232.72380581 -19 237 C-19.66 237 -20.32 237 -21 237 C-20.67 238.65 -20.34 240.3 -20 242 C-20.99 242 -21.98 242 -23 242 C-23 245.3 -23 248.6 -23 252 C-22.01 252.33 -21.02 252.66 -20 253 C-20.33 254.32 -20.66 255.64 -21 257 C-20.34 257 -19.68 257 -19 257 C-18.9175 257.9075 -18.835 258.815 -18.75 259.75 C-17.90751268 263.40077839 -16.82118382 264.63384583 -14 267 C-14.66 267 -15.32 267 -16 267 C-15.566875 267.433125 -15.13375 267.86625 -14.6875 268.3125 C-14.130625 268.869375 -13.57375 269.42625 -13 270 C-12.443125 270.433125 -11.88625 270.86625 -11.3125 271.3125 C-9.37364922 273.80530815 -9.79620238 275.94303577 -10 279 C-8.68 279.66 -7.36 280.32 -6 281 C-6 282.32 -6 283.64 -6 285 C-5.01 285 -4.02 285 -3 285 C-1.25 287.3125 -1.25 287.3125 0 290 C-0.33 290.99 -0.66 291.98 -1 293 C-0.34 293.66 0.32 294.32 1 295 C1 295.99 1 296.98 1 298 C1.99 298 2.98 298 4 298 C4.33 299.98 4.66 301.96 5 304 C5.99 304.33 6.98 304.66 8 305 C8 305.99 8 306.98 8 308 C8.66 308 9.32 308 10 308 C10.103125 309.093125 10.20625 310.18625 10.3125 311.3125 C11.02704644 315.14506729 11.3405997 315.56221639 14 318 C14.36442233 319.66014616 14.69972883 321.32706064 15 323 C15.66 323.66 16.32 324.32 17 325 C17 325.99 17 326.98 17 328 C17.99 327.67 18.98 327.34 20 327 C20.185625 328.175625 20.185625 328.175625 20.375 329.375 C20.79117993 332.14057822 20.79117993 332.14057822 23 334 C23 334.99 23 335.98 23 337 C23.99 337 24.98 337 26 337 C26 338.98 26 340.96 26 343 C27.32 343.33 28.64 343.66 30 344 C30.33 345.98 30.66 347.96 31 350 C31.66 350 32.32 350 33 350 C33.33 352.31 33.66 354.62 34 357 C34.99 357 35.98 357 37 357 C37 357.99 37 358.98 37 360 C37.66 360 38.32 360 39 360 C39.144375 361.093125 39.28875 362.18625 39.4375 363.3125 C40.09795123 367.64212473 40.6352435 370.17360454 44 373 C44.66 373 45.32 373 46 373 C46 373.99 46 374.98 46 376 C46.7425 376.7115625 46.7425 376.7115625 47.5 377.4375 C49 379 49 379 49 383 C49.66 383.99 50.32 384.98 51 386 C51.66 386 52.32 386 53 386 C53.1953125 388.01822917 53.390625 390.03645833 53.5859375 392.0546875 C53.86374749 394.22668245 53.86374749 394.22668245 56 396 C56.625 398.125 56.625 398.125 57 400 C57.66 400 58.32 400 59 400 C59 400.99 59 401.98 59 403 C58.34 403 57.68 403 57 403 C57.32484375 403.55945313 57.6496875 404.11890625 57.984375 404.6953125 C60.15982416 409.63190866 59.44967273 415.35119997 58.0625 420.4375 C57.711875 421.283125 57.36125 422.12875 57 423 C56.67 423.99 56.34 424.98 56 426 C55.01 426.33 54.02 426.66 53 427 C51.28432339 430.50294871 51.28432339 430.50294871 50 434 C48.68 434 47.36 434 46 434 C46 435.32 46 436.64 46 438 C42.68885166 439.12880057 39.41021743 440.21302675 36 441 C36 441.66 36 442.32 36 443 C35.34 443 34.68 443 34 443 C34 444.32 34 445.64 34 447 C31.36 447 28.72 447 26 447 C25.67 447.99 25.34 448.98 25 450 C24.34 450 23.68 450 23 450 C23 449.01 23 448.02 23 447 C21.01508358 447.26676204 21.01508358 447.26676204 19 448 C18.67 448.99 18.34 449.98 18 451 C11.55579708 453.8474385 6.48293469 453.46968941 0 451 C0 451.99 0 452.98 0 454 C-2.97 454 -5.94 454 -9 454 C-9 453.01 -9 452.02 -9 451 C-11.64 451 -14.28 451 -17 451 C-17.33 452.65 -17.66 454.3 -18 456 C-19.98 456 -21.96 456 -24 456 C-24 455.01 -24 454.02 -24 453 C-27.3 453 -30.6 453 -34 453 C-34.33 453.99 -34.66 454.98 -35 456 C-35.804375 456.12375 -36.60875 456.2475 -37.4375 456.375 C-38.283125 456.58125 -39.12875 456.7875 -40 457 C-40.33 457.66 -40.66 458.32 -41 459 C-43.97 459 -46.94 459 -50 459 C-50.66 457.68 -51.32 456.36 -52 455 C-52.66 455.33 -53.32 455.66 -54 456 C-57.06242321 456.08711775 -60.10186465 456.1154846 -63.1640625 456.09765625 C-64.07127045 456.0962413 -64.97847839 456.09482635 -65.91317749 456.09336853 C-68.81715155 456.08776096 -71.72104915 456.07520718 -74.625 456.0625 C-76.59114472 456.05748598 -78.55729065 456.0529229 -80.5234375 456.04882812 C-85.3489879 456.03778906 -90.17448097 456.02051935 -95 456 C-95.66 454.68 -96.32 453.36 -97 452 C-97.66 452 -98.32 452 -99 452 C-99 452.66 -99 453.32 -99 454 C-99.99 454 -100.98 454 -102 454 C-102 452.68 -102 451.36 -102 450 C-102.99 450.33 -103.98 450.66 -105 451 C-105.33 449.68 -105.66 448.36 -106 447 C-107.32 446.67 -108.64 446.34 -110 446 C-110 445.01 -110 444.02 -110 443 C-110.99 443 -111.98 443 -113 443 C-113.268125 442.360625 -113.53625 441.72125 -113.8125 441.0625 C-114.88667752 438.66868314 -114.88667752 438.66868314 -118 438 C-118.33 437.01 -118.66 436.02 -119 435 C-119.99 434.67 -120.98 434.34 -122 434 C-122.33 434.66 -122.66 435.32 -123 436 C-123.4125 435.2575 -123.825 434.515 -124.25 433.75 C-125.86550733 430.96201352 -125.86550733 430.96201352 -128.125 429 C-130.30904742 426.67034942 -130.65253717 425.1271655 -131 422 C-131.66 422.66 -132.32 423.32 -133 424 C-133.99 424 -134.98 424 -136 424 C-136 424.66 -136 425.32 -136 426 C-136.78375 426.103125 -137.5675 426.20625 -138.375 426.3125 C-141.33045181 426.77595022 -141.33045181 426.77595022 -143 430 C-146.125 431.1875 -146.125 431.1875 -149 432 C-149 433.65 -149 435.3 -149 437 C-150.98 435.515 -150.98 435.515 -153 434 C-153 434.99 -153 435.98 -153 437 C-154.65 437.33 -156.3 437.66 -158 438 C-158.33 438.99 -158.66 439.98 -159 441 C-160.87272954 443.56268253 -161.89954777 443.9774495 -165.0625 444.6875 C-168 445 -168 445 -170 445 C-170.66 445.66 -171.32 446.32 -172 447 C-172.99 446.34 -173.98 445.68 -175 445 C-175 445.66 -175 446.32 -175 447 C-176.375 448.625 -176.375 448.625 -178 450 C-178.66 450 -179.32 450 -180 450 C-180 449.01 -180 448.02 -180 447 C-180.99 447 -181.98 447 -183 447 C-183 448.32 -183 449.64 -183 451 C-183.66 451 -184.32 451 -185 451 C-185.33 450.34 -185.66 449.68 -186 449 C-186.66 449 -187.32 449 -188 449 C-188 449.66 -188 450.32 -188 451 C-189.5 452.625 -189.5 452.625 -191 454 C-192.32 453.34 -193.64 452.68 -195 452 C-195.66 453.32 -196.32 454.64 -197 456 C-197.66 456 -198.32 456 -199 456 C-199 455.34 -199 454.68 -199 454 C-200.32 453.67 -201.64 453.34 -203 453 C-203.33 453.99 -203.66 454.98 -204 456 C-204.515625 455.814375 -205.03125 455.62875 -205.5625 455.4375 C-208.85908739 454.84580483 -211.72245735 455.432733 -215 456 C-214.67 457.32 -214.34 458.64 -214 460 C-215.32 460 -216.64 460 -218 460 C-218.33 459.34 -218.66 458.68 -219 458 C-221.02463255 457.34786708 -221.02463255 457.34786708 -223 457 C-223 457.99 -223 458.98 -223 460 C-224.65 460 -226.3 460 -228 460 C-228 460.99 -228 461.98 -228 463 C-230.31 463 -232.62 463 -235 463 C-235.33 462.34 -235.66 461.68 -236 461 C-238.31 461 -240.62 461 -243 461 C-242.67 461.99 -242.34 462.98 -242 464 C-252.89 464 -263.78 464 -275 464 C-275.33 463.01 -275.66 462.02 -276 461 C-278.31 460.67 -280.62 460.34 -283 460 C-282.67 460.99 -282.34 461.98 -282 463 C-284.64 463 -287.28 463 -290 463 C-290.33 462.01 -290.66 461.02 -291 460 C-292.65 460 -294.3 460 -296 460 C-296.33 459.34 -296.66 458.68 -297 458 C-299.52733235 457.34444881 -299.52733235 457.34444881 -302 457 C-302 457.99 -302 458.98 -302 460 C-303.32 459.67 -304.64 459.34 -306 459 C-306 458.01 -306 457.02 -306 456 C-309.3 456 -312.6 456 -316 456 C-316 455.01 -316 454.02 -316 453 C-316.99 453 -317.98 453 -319 453 C-319.33 453.99 -319.66 454.98 -320 456 C-320.66 456 -321.32 456 -322 456 C-322.33 454.68 -322.66 453.36 -323 452 C-324.98 451.67 -326.96 451.34 -329 451 C-329 450.34 -329 449.68 -329 449 C-329.66 449 -330.32 449 -331 449 C-331.33 449.66 -331.66 450.32 -332 451 C-332.66 451 -333.32 451 -334 451 C-334 449.68 -334 448.36 -334 447 C-337.63 447 -341.26 447 -345 447 C-345 445.68 -345 444.36 -345 443 C-346.32 443 -347.64 443 -349 443 C-350.67422986 442.70700977 -352.34178227 442.37309899 -354 442 C-354.7425 441.855625 -355.485 441.71125 -356.25 441.5625 C-356.8275 441.376875 -357.405 441.19125 -358 441 C-358.33 440.34 -358.66 439.68 -359 439 C-359.66 439.33 -360.32 439.66 -361 440 C-361.99 438.02 -362.98 436.04 -364 434 C-365.65 434 -367.3 434 -369 434 C-369 432.68 -369 431.36 -369 430 C-370.5778125 430.0928125 -370.5778125 430.0928125 -372.1875 430.1875 C-377.01351629 429.95015494 -379.33927864 428.54618886 -382.8125 425.3125 C-383.204375 424.879375 -383.59625 424.44625 -384 424 C-383.34 424 -382.68 424 -382 424 C-383.63412443 422.29159719 -384.86906094 421.06546953 -387 420 C-387.33 419.34 -387.66 418.68 -388 418 C-388.99 418.66 -389.98 419.32 -391 420 C-391.37125 419.05125 -391.7425 418.1025 -392.125 417.125 C-393.73995905 413.74446192 -393.73995905 413.74446192 -397.1875 412.625 C-398.115625 412.41875 -399.04375 412.2125 -400 412 C-400 410.68 -400 409.36 -400 408 C-400.66 408 -401.32 408 -402 408 C-402 407.34 -402 406.68 -402 406 C-402.66 406 -403.32 406 -404 406 C-404.33 406.66 -404.66 407.32 -405 408 C-408.32261699 404.85698393 -410.66159425 401.89734291 -413 398 C-414.62449243 396.29220027 -416.29220027 394.62449243 -418 393 C-419.33333333 391.66666667 -420.66666667 390.33333333 -422 389 C-422.66 389.33 -423.32 389.66 -424 390 C-425.65 388.02 -427.3 386.04 -429 384 C-428.34 383.67 -427.68 383.34 -427 383 C-427.7425 382.319375 -427.7425 382.319375 -428.5 381.625 C-430 380 -430 380 -430 378 C-431.32 378 -432.64 378 -434 378 C-434.226875 377.05125 -434.45375 376.1025 -434.6875 375.125 C-435.69083714 371.80676612 -435.69083714 371.80676612 -438.625 370.625 C-439.40875 370.41875 -440.1925 370.2125 -441 370 C-440.67 368.35 -440.34 366.7 -440 365 C-441.32 364.67 -442.64 364.34 -444 364 C-444 363.01 -444 362.02 -444 361 C-445.32 360.67 -446.64 360.34 -448 360 C-448 359.34 -448 358.68 -448 358 C-448.66 358 -449.32 358 -450 358 C-451.4606285 355.35261084 -452 354.10551666 -452 351 C-452.66 351 -453.32 351 -454 351 C-454.495 349.515 -454.495 349.515 -455 348 C-455.66 347.34 -456.32 346.68 -457 346 C-456.34 345.34 -455.68 344.68 -455 344 C-455.99 344 -456.98 344 -458 344 C-458 343.01 -458 342.02 -458 341 C-458.99 340.67 -459.98 340.34 -461 340 C-461.33 336.7 -461.66 333.4 -462 330 C-462.66 330 -463.32 330 -464 330 C-464 329.34 -464 328.68 -464 328 C-464.99 328 -465.98 328 -467 328 C-467.08636719 327.40832031 -467.17273438 326.81664062 -467.26171875 326.20703125 C-468.1824908 320.7859523 -468.1824908 320.7859523 -471.5625 316.5625 C-474.76580287 313.19492519 -474.52697369 310.87650372 -474.76171875 306.3828125 C-475.06856659 303.31433415 -476.03350273 301.35979673 -478 299 C-478.66 299 -479.32 299 -480 299 C-480.66666667 294.33333333 -481.33333333 289.66666667 -482 285 C-482.66 285.66 -483.32 286.32 -484 287 C-483.938125 286.071875 -483.87625 285.14375 -483.8125 284.1875 C-484.02606078 280.55696677 -484.47894163 280.31097017 -487 278 C-487 276.68 -487 275.36 -487 274 C-486.34 273.67 -485.68 273.34 -485 273 C-485 272.01 -485 271.02 -485 270 C-485.66 270 -486.32 270 -487 270 C-487.33 270.66 -487.66 271.32 -488 272 C-488 269.03 -488 266.06 -488 263 C-488.66 263 -489.32 263 -490 263 C-490 261.35 -490 259.7 -490 258 C-489.34 258 -488.68 258 -488 258 C-488.44876616 256.35153231 -488.90930488 254.70626545 -489.375 253.0625 C-489.63023437 252.14597656 -489.88546875 251.22945312 -490.1484375 250.28515625 C-490.76660104 247.83254913 -490.76660104 247.83254913 -493 247 C-493.02687279 245.18757948 -493.04633715 243.37504767 -493.0625 241.5625 C-493.07410156 240.55316406 -493.08570313 239.54382813 -493.09765625 238.50390625 C-493 236 -493 236 -492 235 C-491.898863 231.98191937 -491.86031091 228.98719487 -491.8671875 225.96875 C-491.86623077 225.06249878 -491.86527405 224.15624756 -491.86428833 223.22253418 C-491.86360647 221.30248953 -491.86546118 219.38244259 -491.86962891 217.46240234 C-491.87497708 214.51264296 -491.86968412 211.56303586 -491.86328125 208.61328125 C-491.86394203 206.75260383 -491.86522319 204.8919265 -491.8671875 203.03125 C-491.86415115 201.69846008 -491.86415115 201.69846008 -491.86105347 200.33874512 C-491.474172 196.35171142 -491.474172 196.35171142 -493 193 C-493.37361093 189.63750163 -493.41978397 186.35827174 -493 183 C-490.9375 180.6875 -490.9375 180.6875 -489 179 C-489.14025199 176.29294488 -489.14025199 176.29294488 -490 174 C-490.495 175.98 -490.495 175.98 -491 178 C-490.67 174.37 -490.34 170.74 -490 167 C-489.34 167 -488.68 167 -488 167 C-488 165.02 -488 163.04 -488 161 C-487.67 161.66 -487.34 162.32 -487 163 C-486.34 163 -485.68 163 -485 163 C-485 161.68 -485 160.36 -485 159 C-485.66 159 -486.32 159 -487 159 C-486.45276317 155.62537285 -485.9451 153.91765 -484 151 C-483.67 150.01 -483.34 149.02 -483 148 C-482.34 148.33 -481.68 148.66 -481 149 C-481.04125 147.783125 -481.0825 146.56625 -481.125 145.3125 C-481.11874922 141.78706132 -480.79549718 139.1184951 -479 136 C-478.01 135.67 -477.02 135.34 -476 135 C-476.495 133.02 -476.495 133.02 -477 131 C-476.34 131 -475.68 131 -475 131 C-474.67 130.01 -474.34 129.02 -474 128 C-473.505 127.5875 -473.01 127.175 -472.5 126.75 C-470.23752544 124.11044635 -470.31861257 121.37729327 -470 118 C-469.01 118 -468.02 118 -467 118 C-464.78831775 115.05763218 -464.78831775 115.05763218 -463 112 C-463.66 111.67 -464.32 111.34 -465 111 C-464.67 110.34 -464.34 109.68 -464 109 C-463.34 109 -462.68 109 -462 109 C-461.896875 108.360625 -461.79375 107.72125 -461.6875 107.0625 C-461.460625 106.381875 -461.23375 105.70125 -461 105 C-460.01 104.67 -459.02 104.34 -458 104 C-457.814375 103.0409375 -457.814375 103.0409375 -457.625 102.0625 C-457.41875 101.381875 -457.2125 100.70125 -457 100 C-455.34795544 99.29788106 -453.68076231 98.63028587 -452 98 C-451.505 96.515 -451.505 96.515 -451 95 C-450.34 94.67 -449.68 94.34 -449 94 C-449.33 93.01 -449.66 92.02 -450 91 C-449.01 91 -448.02 91 -447 91 C-446.505 89.02 -446.505 89.02 -446 87 C-444.02 86.505 -444.02 86.505 -442 86 C-441.505 84.02 -441.505 84.02 -441 82 C-440.01 82 -439.02 82 -438 82 C-437.505 80.02 -437.505 80.02 -437 78 C-435.02 78 -433.04 78 -431 78 C-430.62875 76.88625 -430.62875 76.88625 -430.25 75.75 C-428.85479302 72.68054465 -427.62092458 71.11130035 -425 69 C-423.01643517 68.28591666 -421.01684563 67.61382258 -419 67 C-418.34 66.34 -417.68 65.68 -417 65 C-415.66666667 64.33333333 -414.33333333 63.66666667 -413 63 C-410.223833 61.28530862 -409.17649664 60.4941906 -408.0625 57.375 C-407.711875 56.59125 -407.36125 55.8075 -407 55 C-404.4375 54.3125 -404.4375 54.3125 -402 54 C-401.505 53.01 -401.505 53.01 -401 52 C-399.906875 52.0825 -398.81375 52.165 -397.6875 52.25 C-393.96557142 52.41103961 -393.96557142 52.41103961 -392.0625 50 C-391.711875 49.34 -391.36125 48.68 -391 48 C-391 48.66 -391 49.32 -391 50 C-390.34 50 -389.68 50 -389 50 C-388.505 49.01 -388.505 49.01 -388 48 C-387.01 48 -386.02 48 -385 48 C-384.34 46.35 -383.68 44.7 -383 43 C-382.34 43 -381.68 43 -381 43 C-381 43.99 -381 44.98 -381 46 C-380.34 46 -379.68 46 -379 46 C-379 45.01 -379 44.02 -379 43 C-376.69 43 -374.38 43 -372 43 C-372.99 41.02 -372.99 41.02 -374 39 C-373.01 39 -372.02 39 -371 39 C-371 39.99 -371 40.98 -371 42 C-370.01 42 -369.02 42 -368 42 C-367.67 41.01 -367.34 40.02 -367 39 C-365.35 39 -363.7 39 -362 39 C-361.67 37.68 -361.34 36.36 -361 35 C-360.01 35.33 -359.02 35.66 -358 36 C-358.33 36.66 -358.66 37.32 -359 38 C-357.02463255 37.65213292 -357.02463255 37.65213292 -355 37 C-354.67 36.34 -354.34 35.68 -354 35 C-351.67843403 34.59270772 -349.3431213 34.25561323 -347 34 C-346.67 32.68 -346.34 31.36 -346 30 C-345.34 30 -344.68 30 -344 30 C-343.67 30.66 -343.34 31.32 -343 32 C-342.34 32 -341.68 32 -341 32 C-341 31.34 -341 30.68 -341 30 C-339.02 30 -337.04 30 -335 30 C-335 29.34 -335 28.68 -335 28 C-334.21625 28.04125 -333.4325 28.0825 -332.625 28.125 C-329.83883881 28.28728734 -329.83883881 28.28728734 -328 26 C-325.4609375 25.40234375 -325.4609375 25.40234375 -322.375 24.9375 C-321.29734375 24.7725 -320.2196875 24.6075 -319.109375 24.4375 C-315.40999241 23.91698386 -311.70888856 23.44762448 -308 23 C-304.89194565 22.56487239 -302.16573921 22.05916462 -299.20825195 21.00341797 C-288.82335062 17.75541976 -276.54352825 18.84091942 -265.7277832 18.86962891 C-263.27744605 18.87507795 -260.82728538 18.86960092 -258.37695312 18.86328125 C-256.80989543 18.86394066 -255.24283785 18.86521898 -253.67578125 18.8671875 C-252.94772781 18.86516327 -252.21967438 18.86313904 -251.46955872 18.86105347 C-248.37170749 18.87551289 -245.96252082 19.01249306 -243 20 C-241.06248684 20.01957084 -239.12430163 19.99353325 -237.1875 19.9375 C-232.62373847 19.89919505 -229.26727371 20.29309052 -225 22 C-220.21390178 23.23450946 -215.37076136 24.11321731 -210.5 24.9375 C-205.45226326 25.84637227 -200.79913543 27.20984631 -196 29 C-194.91976563 29.39574219 -193.83953125 29.79148438 -192.7265625 30.19921875 C-187.52176336 32.14663236 -182.73607476 34.07598863 -178 37 C-173.1676196 38.51874812 -168.01412699 38.08762552 -163 38 C-163 38.33 -163 38.66 -163 39 C-166.465 39.495 -166.465 39.495 -170 40 C-166.04 40.66 -162.08 41.32 -158 42 C-158.33 41.01 -158.66 40.02 -159 39 C-156.03 38.67 -153.06 38.34 -150 38 C-150 37.34 -150 36.68 -150 36 C-149.31897217 36.02094727 -148.63794434 36.04189453 -147.9362793 36.06347656 C-144.85350278 36.14657452 -141.77096163 36.19863954 -138.6875 36.25 C-137.61564453 36.28351563 -136.54378906 36.31703125 -135.43945312 36.3515625 C-133.89741211 36.37089844 -133.89741211 36.37089844 -132.32421875 36.390625 C-131.37635498 36.41157227 -130.42849121 36.43251953 -129.4519043 36.45410156 C-126.83393715 36.23727968 -126.83393715 36.23727968 -125.29223633 33.97558594 C-124.65257935 32.9976709 -124.65257935 32.9976709 -124 32 C-123.34 32 -122.68 32 -122 32 C-122 31.34 -122 30.68 -122 30 C-120.70766393 28.62689293 -119.37562854 27.28965176 -118 26 C-118.66 25.67 -119.32 25.34 -120 25 C-117.87044345 23.26480578 -116.08599078 22.03224654 -113.5 21.0625 C-110.87272658 20.12998497 -110.87272658 20.12998497 -108.9375 17.9375 C-106.85057012 15.85057012 -105.89940607 15.27181932 -103 15 C-100.75 15.4375 -100.75 15.4375 -99 16 C-98.67 15.01 -98.34 14.02 -98 13 C-97.34 13 -96.68 13 -96 13 C-96 13.99 -96 14.98 -96 16 C-95.278125 15.690625 -94.55625 15.38125 -93.8125 15.0625 C-91.19692691 14.07439461 -88.74881018 13.4712246 -86 13 C-86 13.66 -86 14.32 -86 15 C-84.515 14.505 -84.515 14.505 -83 14 C-83.66 13.67 -84.32 13.34 -85 13 C-84.67 12.01 -84.34 11.02 -84 10 C-82.02 10 -80.04 10 -78 10 C-77.67 10.99 -77.34 11.98 -77 13 C-73.535 12.505 -73.535 12.505 -70 12 C-69.67 11.01 -69.34 10.02 -69 9 C-67.02 9 -65.04 9 -63 9 C-63.33 9.99 -63.66 10.98 -64 12 C-61.6568787 11.74438677 -59.32156597 11.40729228 -57 11 C-56.67 10.34 -56.34 9.68 -56 9 C-49.73 9 -43.46 9 -37 9 C-37 7.68 -37 6.36 -37 5 C-34.36 5 -31.72 5 -29 5 C-29.33 5.99 -29.66 6.98 -30 8 C-26.535 7.505 -26.535 7.505 -23 7 C-23 6.34 -23 5.68 -23 5 C-15.41 5 -7.82 5 0 5 C0 3.35 0 1.7 0 0 Z M32 35 C33 37 33 37 33 37 Z M140 51 C140 52.32 140 53.64 140 55 C140.66 55 141.32 55 142 55 C142 53.68 142 52.36 142 51 C141.34 51 140.68 51 140 51 Z M-407 56 C-407 56.99 -407 57.98 -407 59 C-406.34 59 -405.68 59 -405 59 C-405.33 58.01 -405.66 57.02 -406 56 C-406.33 56 -406.66 56 -407 56 Z M139 56 C140 58 140 58 140 58 Z M129 73 C130 75 130 75 130 75 Z M-435 79 C-434 81 -434 81 -434 81 Z M-461 106 C-460 109 -460 109 -460 109 Z M72 139 C71.67 139.66 71.34 140.32 71 141 C71.66 141 72.32 141 73 141 C72.67 140.34 72.34 139.68 72 139 Z M-485 157 C-484 159 -484 159 -484 159 Z M-236 183 C-236 183.66 -236 184.32 -236 185 C-236.99 184.67 -237.98 184.34 -239 184 C-241.2890789 185.02901574 -241.2890789 185.02901574 -243 187 C-243.33425735 189.62625139 -243.33425735 189.62625139 -243 192 C-243.99 191.67 -244.98 191.34 -246 191 C-246.99 191.33 -247.98 191.66 -249 192 C-249 192.66 -249 193.32 -249 194 C-249.66 194 -250.32 194 -251 194 C-251.495 193.01 -251.495 193.01 -252 192 C-252.721875 192.86625 -253.44375 193.7325 -254.1875 194.625 C-254.64640625 195.1715625 -255.1053125 195.718125 -255.578125 196.28125 C-256.89404034 197.8719169 -258.16781241 199.4971954 -259.4375 201.125 C-262 204 -262 204 -265.3125 206.1875 C-266.6428125 207.0846875 -266.6428125 207.0846875 -268 208 C-268 208.99 -268 209.98 -268 211 C-268.99 211.33 -269.98 211.66 -271 212 C-270.01 212 -269.02 212 -268 212 C-268.33 212.66 -268.66 213.32 -269 214 C-269.804375 214.268125 -270.60875 214.53625 -271.4375 214.8125 C-274.19192487 215.78613409 -274.19192487 215.78613409 -275.375 218.4375 C-276.26390157 221.09499208 -276.26390157 221.09499208 -275 224 C-276.98 224.495 -276.98 224.495 -279 225 C-279.495 227.475 -279.495 227.475 -280 230 C-280.66 230 -281.32 230 -282 230 C-282 231.32 -282 232.64 -282 234 C-282.66 234 -283.32 234 -284 234 C-284.95024979 237.69541586 -284.95024979 240.30458414 -284 244 C-284.66 244 -285.32 244 -286 244 C-286 244.99 -286 245.98 -286 247 C-286.66 247 -287.32 247 -288 247 C-289.46428789 252.03770789 -289.22398118 257.10548313 -289.25 262.3125 C-289.270625 263.33279297 -289.29125 264.35308594 -289.3125 265.40429688 C-289.34339835 271.379266 -289.01469323 275.78063626 -286 281 C-285.01 281.66 -284.02 282.32 -283 283 C-283 284.32 -283 285.64 -283 287 C-282.34 287.66 -281.68 288.32 -281 289 C-281 288.34 -281 287.68 -281 287 C-280.34 287 -279.68 287 -279 287 C-279.33 288.32 -279.66 289.64 -280 291 C-278.865625 291.433125 -277.73125 291.86625 -276.5625 292.3125 C-275.386875 292.869375 -274.21125 293.42625 -273 294 C-272.67 294.99 -272.34 295.98 -272 297 C-272.99 297.495 -272.99 297.495 -274 298 C-273.236875 298.103125 -272.47375 298.20625 -271.6875 298.3125 C-269 299 -269 299 -267.4375 300.625 C-266.963125 301.07875 -266.48875 301.5325 -266 302 C-263.83700789 301.77242269 -263.83700789 301.77242269 -262 301 C-262 301.99 -262 302.98 -262 304 C-260.515 303.505 -260.515 303.505 -259 303 C-258.34 303 -257.68 303 -257 303 C-256.67 303.66 -256.34 304.32 -256 305 C-253.77260299 303.93798263 -253.77260299 303.93798263 -251 302 C-251 302.99 -251 303.98 -251 305 C-251.99 305.495 -251.99 305.495 -253 306 C-250.10813214 307.33304698 -250.10813214 307.33304698 -247.8125 306.0625 C-247.214375 305.711875 -246.61625 305.36125 -246 305 C-245.67 305.99 -245.34 306.98 -245 308 C-241.7 308 -238.4 308 -235 308 C-235 307.67 -235 307.34 -235 307 C-236.65 306.67 -238.3 306.34 -240 306 C-236.37 305.67 -232.74 305.34 -229 305 C-230.88343932 301.23312136 -231.69132469 300.20578354 -235 298 C-234.34 297.34 -233.68 296.68 -233 296 C-234.4540625 294.8553125 -234.4540625 294.8553125 -235.9375 293.6875 C-238.42086332 291.73251185 -238.9521672 291.14349841 -240 288 C-241.65 287.67 -243.3 287.34 -245 287 C-245.103125 285.741875 -245.20625 284.48375 -245.3125 283.1875 C-245.64657811 280.49101243 -245.82977893 279.23682932 -247.4375 277 C-248.97157334 275.82031543 -248.97157334 275.82031543 -251 276 C-251.66 274.68 -252.32 273.36 -253 272 C-253.66 272 -254.32 272 -255 272 C-254.7525 271.4225 -254.505 270.845 -254.25 270.25 C-254.1675 269.5075 -254.085 268.765 -254 268 C-255.85055798 265.76656796 -257.40383083 264.29808458 -260 263 C-260 261.68 -260 260.36 -260 259 C-260.66 259 -261.32 259 -262 259 C-261.73896484 257.97326172 -261.73896484 257.97326172 -261.47265625 256.92578125 C-260.92653455 253.54524278 -261.12777331 250.59449357 -261.4375 247.1875 C-261.53933594 246.02605469 -261.64117187 244.86460937 -261.74609375 243.66796875 C-261.87177734 242.34732422 -261.87177734 242.34732422 -262 241 C-262.66 241 -263.32 241 -264 241 C-264 239.68 -264 238.36 -264 237 C-263.34 237 -262.68 237 -262 237 C-261.67 237.66 -261.34 238.32 -261 239 C-261 237.68 -261 236.36 -261 235 C-260.34 235 -259.68 235 -259 235 C-258.49596232 233.70990357 -257.99690074 232.41786211 -257.5 231.125 C-257.08234375 230.04605469 -257.08234375 230.04605469 -256.65625 228.9453125 C-255.89344982 227.02632539 -255.89344982 227.02632539 -256 225 C-255.360625 224.4225 -254.72125 223.845 -254.0625 223.25 C-251.53154834 220.48896183 -251.54126378 218.63419968 -251 215 C-249.08268479 212.47262996 -248.08494591 212.0283153 -245 211 C-244.37907282 209.18703385 -244.37907282 209.18703385 -244 207 C-243.3530635 205.3255761 -242.69040574 203.65697379 -242 202 C-241.01 202 -240.02 202 -239 202 C-237.47987963 199.74572728 -237.47987963 199.74572728 -236 197 C-234.948125 195.7934375 -234.948125 195.7934375 -233.875 194.5625 C-231.69549182 191.58383882 -231.07999044 189.67956009 -231 186 C-232.18895236 184.05967596 -232.18895236 184.05967596 -234 183 C-234.66 183 -235.32 183 -236 183 Z M-247 189 C-246 191 -246 191 -246 191 Z M19 195 C18.01 196.485 18.01 196.485 17 198 C17.99 198 18.98 198 20 198 C19.67 197.01 19.34 196.02 19 195 Z M14 200 C13.67 200.66 13.34 201.32 13 202 C13.99 202 14.98 202 16 202 C16 201.34 16 200.68 16 200 C15.34 200 14.68 200 14 200 Z M-286 239 C-285 242 -285 242 -285 242 Z M-229 305 C-229 305.66 -229 306.32 -229 307 C-228.34 307 -227.68 307 -227 307 C-227 306.34 -227 305.68 -227 305 C-227.66 305 -228.32 305 -229 305 Z M-448 356 C-447 358 -447 358 -447 358 Z M46 378 C47 380 47 380 47 380 Z M-425 384 C-425 384.99 -425 385.98 -425 387 C-424.34 386.67 -423.68 386.34 -423 386 C-423.66 385.34 -424.32 384.68 -425 384 Z M-408 402 C-408 402.66 -408 403.32 -408 404 C-407.01 403.67 -406.02 403.34 -405 403 C-405.99 402.67 -406.98 402.34 -408 402 Z M-381 423 C-381 423.99 -381 424.98 -381 426 C-380.34 426 -379.68 426 -379 426 C-379.33 425.01 -379.66 424.02 -380 423 C-380.33 423 -380.66 423 -381 423 Z M-123 431 C-122 433 -122 433 -122 433 Z M-165 440 C-164.67 440.99 -164.34 441.98 -164 443 C-163.67 442.01 -163.34 441.02 -163 440 C-163.66 440 -164.32 440 -165 440 Z M7 449 C7 449.66 7 450.32 7 451 C8.98 451 10.96 451 13 451 C13 450.34 13 449.68 13 449 C11.02 449 9.04 449 7 449 Z M-8 450 C-8 450.33 -8 450.66 -8 451 C-5.36 451 -2.72 451 0 451 C0 450.67 0 450.34 0 450 C-2.64 450 -5.28 450 -8 450 Z M-50 456 C-48.02 456 -46.04 456 -44 456 C-43.67 455.34 -43.34 454.68 -43 454 C-46.10551666 454 -47.35261084 454.5393715 -50 456 Z M-291 459 C-287 460 -287 460 -287 460 Z M-236 459 C-236 459.33 -236 459.66 -236 460 C-234.35 460 -232.7 460 -231 460 C-231 459.67 -231 459.34 -231 459 C-232.65 459 -234.3 459 -236 459 Z " fill="#020202" transform="translate(635,205)"/>
<path d="M0 0 C2.45033716 0.00544905 4.90049782 -0.00002798 7.35083008 -0.00634766 C8.91788777 -0.00568824 10.48494536 -0.00440993 12.05200195 -0.00244141 C12.78005539 -0.00446564 13.50810883 -0.00648987 14.25822449 -0.00857544 C17.35607571 0.00588399 19.76526238 0.14286415 22.7277832 1.13037109 C24.66529637 1.14994193 26.60348157 1.12390435 28.5402832 1.06787109 C33.10404474 1.02956614 36.46050949 1.42346161 40.7277832 3.13037109 C45.51388142 4.36488055 50.35702184 5.2435884 55.2277832 6.06787109 C60.27551994 6.97674336 64.92864778 8.3402174 69.7277832 10.13037109 C70.80801758 10.52611328 71.88825195 10.92185547 73.0012207 11.32958984 C78.20601985 13.27700346 82.99170844 15.20635972 87.7277832 18.13037109 C92.5601636 19.64911922 97.71365621 19.21799661 102.7277832 19.13037109 C102.7277832 19.46037109 102.7277832 19.79037109 102.7277832 20.13037109 C100.4177832 20.46037109 98.1077832 20.79037109 95.7277832 21.13037109 C97.78012005 23.37816859 98.73445581 24.1325953 101.7277832 25.13037109 C102.0577832 25.79037109 102.3877832 26.45037109 102.7277832 27.13037109 C104.37829608 28.24671261 104.37829608 28.24671261 106.2902832 29.25537109 C107.4246582 29.87412109 108.5590332 30.49287109 109.7277832 31.13037109 C109.7277832 32.45037109 109.7277832 33.77037109 109.7277832 35.13037109 C109.0677832 35.13037109 108.4077832 35.13037109 107.7277832 35.13037109 C107.3565332 35.93474609 107.3565332 35.93474609 106.9777832 36.75537109 C105.42125784 39.71276929 103.69342647 42.4276116 101.7277832 45.13037109 C101.0677832 45.13037109 100.4077832 45.13037109 99.7277832 45.13037109 C99.6452832 45.70787109 99.5627832 46.28537109 99.4777832 46.88037109 C98.7277832 49.13037109 98.7277832 49.13037109 97.03637695 50.79443359 C94.00122993 53.8655299 91.56641202 57.262287 89.0402832 60.75537109 C88.54206055 61.43599609 88.04383789 62.11662109 87.53051758 62.81787109 C84.92053195 66.34490282 84.92053195 66.34490282 82.7277832 70.13037109 C82.0677832 70.13037109 81.4077832 70.13037109 80.7277832 70.13037109 C80.0677832 72.11037109 79.4077832 74.09037109 78.7277832 76.13037109 C78.0677832 76.13037109 77.4077832 76.13037109 76.7277832 76.13037109 C76.3255957 76.93474609 76.3255957 76.93474609 75.9152832 77.75537109 C74.51944987 80.54703776 73.12361654 83.33870443 71.7277832 86.13037109 C71.0677832 86.13037109 70.4077832 86.13037109 69.7277832 86.13037109 C69.7277832 86.79037109 69.7277832 87.45037109 69.7277832 88.13037109 C69.0677832 88.13037109 68.4077832 88.13037109 67.7277832 88.13037109 C67.3874707 89.18224609 67.3874707 89.18224609 67.0402832 90.25537109 C65.44903489 93.74096264 63.17425448 96.19460556 60.7277832 99.13037109 C60.01615878 100.77834345 59.33746367 102.44202517 58.7277832 104.13037109 C58.0677832 104.79037109 57.4077832 105.45037109 56.7277832 106.13037109 C50.55462288 105.87315608 45.35377456 103.52729667 39.7277832 101.13037109 C38.06255996 100.46010714 36.39628625 99.79242835 34.7277832 99.13037109 C34.7277832 98.47037109 34.7277832 97.81037109 34.7277832 97.13037109 C33.58180664 97.14970703 32.43583008 97.16904297 31.25512695 97.18896484 C26.87671604 97.1879998 22.62686345 96.76272926 18.2902832 96.19287109 C17.57163086 96.10585938 16.85297852 96.01884766 16.11254883 95.92919922 C10.85658799 95.25917588 10.85658799 95.25917588 9.7277832 94.13037109 C-6.50496018 92.36549373 -26.64061618 93.62889728 -41.39819336 101.22460938 C-43.2722168 102.13037109 -43.2722168 102.13037109 -46.2722168 102.13037109 C-46.2722168 102.79037109 -46.2722168 103.45037109 -46.2722168 104.13037109 C-47.09206055 104.39591797 -47.9119043 104.66146484 -48.7565918 104.93505859 C-49.83424805 105.28826172 -50.9119043 105.64146484 -52.0222168 106.00537109 C-53.08956055 106.35341797 -54.1569043 106.70146484 -55.2565918 107.06005859 C-57.72770941 107.93711329 -59.969586 108.88963314 -62.2722168 110.13037109 C-62.2722168 110.79037109 -62.2722168 111.45037109 -62.2722168 112.13037109 C-63.1384668 112.52224609 -64.0047168 112.91412109 -64.8972168 113.31787109 C-67.52529927 114.72924872 -69.32228566 115.91054163 -71.5222168 117.81787109 C-74.2722168 120.13037109 -74.2722168 120.13037109 -76.2722168 120.13037109 C-76.6022168 121.12037109 -76.9322168 122.11037109 -77.2722168 123.13037109 C-77.9322168 123.13037109 -78.5922168 123.13037109 -79.2722168 123.13037109 C-79.7672168 124.61537109 -79.7672168 124.61537109 -80.2722168 126.13037109 C-81.235164 127.16609919 -82.2411023 128.16248531 -83.2722168 129.13037109 C-87.08325806 133.27054774 -90.39406969 137.28296544 -93.2722168 142.13037109 C-93.9322168 142.13037109 -94.5922168 142.13037109 -95.2722168 142.13037109 C-95.6022168 143.45037109 -95.9322168 144.77037109 -96.2722168 146.13037109 C-96.9322168 146.13037109 -97.5922168 146.13037109 -98.2722168 146.13037109 C-98.3753418 146.99662109 -98.4784668 147.86287109 -98.5847168 148.75537109 C-99.30952788 152.31353461 -100.600311 154.92588498 -102.2722168 158.13037109 C-102.95858305 160.36562144 -102.95858305 160.36562144 -103.2722168 162.13037109 C-103.9322168 162.13037109 -104.5922168 162.13037109 -105.2722168 162.13037109 C-106.2622168 169.55537109 -106.2622168 169.55537109 -107.2722168 177.13037109 C-107.9322168 177.13037109 -108.5922168 177.13037109 -109.2722168 177.13037109 C-109.32195376 182.80459338 -109.358095 188.47868648 -109.38208008 194.15307617 C-109.39208766 196.08018202 -109.4056979 198.00727287 -109.4230957 199.93432617 C-109.447576 202.71716022 -109.45875258 205.4997921 -109.4675293 208.28271484 C-109.47785187 209.13308823 -109.48817444 209.98346161 -109.49880981 210.85960388 C-109.49985479 216.53314875 -108.71466599 221.64943757 -107.2722168 227.13037109 C-107.0144043 228.15646484 -106.7565918 229.18255859 -106.4909668 230.23974609 C-106.2537793 231.11115234 -106.0165918 231.98255859 -105.7722168 232.88037109 C-105.5350293 233.76208984 -105.2978418 234.64380859 -105.0534668 235.55224609 C-104.30588183 238.17145449 -104.30588183 238.17145449 -103.1784668 240.77099609 C-102.2722168 243.13037109 -102.2722168 243.13037109 -102.2722168 246.13037109 C-101.6122168 246.13037109 -100.9522168 246.13037109 -100.2722168 246.13037109 C-99.7772168 248.60537109 -99.7772168 248.60537109 -99.2722168 251.13037109 C-98.6122168 251.13037109 -97.9522168 251.13037109 -97.2722168 251.13037109 C-96.01556702 254.03637371 -95.2722168 255.92641694 -95.2722168 259.13037109 C-94.6122168 259.13037109 -93.9522168 259.13037109 -93.2722168 259.13037109 C-91.63598324 261.11957642 -90.10264485 263.11644943 -88.5847168 265.19287109 C-81.92997574 274.03328462 -74.14050802 283.50760735 -63.2722168 287.13037109 C-63.2722168 287.79037109 -63.2722168 288.45037109 -63.2722168 289.13037109 C-61.9522168 289.46037109 -60.6322168 289.79037109 -59.2722168 290.13037109 C-59.2722168 290.79037109 -59.2722168 291.45037109 -59.2722168 292.13037109 C-58.6122168 292.23349609 -57.9522168 292.33662109 -57.2722168 292.44287109 C-52.17330289 293.6113722 -47.44258427 295.62590235 -42.6472168 297.69287109 C-33.54383029 301.57023942 -25.01306295 302.28427345 -15.21362305 302.29833984 C-14.38442856 302.30166824 -13.55523407 302.30499664 -12.70091248 302.3084259 C-10.96060738 302.31345092 -9.22029281 302.31583561 -7.47998047 302.31567383 C-4.84480689 302.31786271 -2.21005114 302.33607238 0.42504883 302.35498047 C8.79041451 302.38249291 16.57328256 302.1902675 24.7277832 300.13037109 C26.59837244 299.88557793 28.47313682 299.66648364 30.3527832 299.50537109 C31.60961914 299.39322266 31.60961914 299.39322266 32.8918457 299.27880859 C33.49770508 299.22982422 34.10356445 299.18083984 34.7277832 299.13037109 C34.7277832 298.47037109 34.7277832 297.81037109 34.7277832 297.13037109 C36.0065332 296.88287109 37.2852832 296.63537109 38.6027832 296.38037109 C43.18838173 295.39515561 47.2307742 293.73121913 51.46606445 291.73974609 C53.7277832 291.13037109 53.7277832 291.13037109 55.91137695 291.89599609 C58.0908948 293.3771308 59.33506202 294.90201721 60.7277832 297.13037109 C60.7277832 297.79037109 60.7277832 298.45037109 60.7277832 299.13037109 C61.3877832 299.13037109 62.0477832 299.13037109 62.7277832 299.13037109 C64.31598387 301.01487785 65.78060781 302.89223876 67.2277832 304.88037109 C67.63125977 305.41919922 68.03473633 305.95802734 68.45043945 306.51318359 C70.05116828 308.6791863 71.55600451 310.7618781 72.6965332 313.20849609 C74.20058319 316.01149834 76.47742142 317.88313048 78.7277832 320.13037109 C81.15556129 323.0738279 83.47136447 326.10077631 85.7902832 329.13037109 C87.01006998 330.71390883 88.23011509 332.2972476 89.45043945 333.88037109 C90.01867432 334.61852051 90.58690918 335.35666992 91.17236328 336.1171875 C94.58660774 340.61906225 94.58660774 340.61906225 98.4152832 344.75537109 C99.7277832 346.13037109 99.7277832 346.13037109 100.7277832 349.13037109 C101.5527832 349.95537109 102.3777832 350.78037109 103.2277832 351.63037109 C105.7277832 354.13037109 105.7277832 354.13037109 106.7277832 357.13037109 C107.3877832 357.13037109 108.0477832 357.13037109 108.7277832 357.13037109 C108.7277832 358.45037109 108.7277832 359.77037109 108.7277832 361.13037109 C108.0677832 361.13037109 107.4077832 361.13037109 106.7277832 361.13037109 C106.7277832 361.79037109 106.7277832 362.45037109 106.7277832 363.13037109 C93.35885116 369.13037109 93.35885116 369.13037109 89.7277832 369.13037109 C89.7277832 369.79037109 89.7277832 370.45037109 89.7277832 371.13037109 C80.37603481 375.73137685 70.98744105 379.62226732 61.11450195 382.96630859 C57.90919465 383.98458384 57.90919465 383.98458384 55.7277832 385.13037109 C53.72818308 385.1703631 51.72731078 385.17383908 49.7277832 385.13037109 C49.7277832 385.79037109 49.7277832 386.45037109 49.7277832 387.13037109 C48.61661133 387.32373047 47.50543945 387.51708984 46.3605957 387.71630859 C32.86911088 389.77303755 32.86911088 389.77303755 19.6965332 393.14672852 C15.1281717 394.45246561 10.67683158 394.41781598 5.9543457 394.39599609 C5.03116547 394.39790955 4.10798523 394.399823 3.15682983 394.40179443 C1.21205369 394.40314984 -0.7327317 394.39949864 -2.67749023 394.39111328 C-5.63115095 394.38042921 -8.58420011 394.39101801 -11.5378418 394.40380859 C-13.43628062 394.40248641 -15.33471907 394.39992279 -17.2331543 394.39599609 C-18.10531586 394.40004456 -18.97747742 394.40409302 -19.87606812 394.40826416 C-24.89617728 394.3704804 -29.45746531 393.83183979 -34.3298645 392.6065979 C-37.11722119 391.92319254 -39.92557509 391.60063209 -42.7722168 391.25537109 C-48.37396506 390.48734032 -53.83526883 389.42093671 -59.3347168 388.13037109 C-60.04885742 387.96424316 -60.76299805 387.79811523 -61.4987793 387.62695312 C-65.22861377 386.72722787 -68.75464001 385.66631105 -72.2722168 384.13037109 C-72.2722168 383.47037109 -72.2722168 382.81037109 -72.2722168 382.13037109 C-73.5097168 382.08912109 -74.7472168 382.04787109 -76.0222168 382.00537109 C-81.36533304 381.4200532 -85.42157781 379.26652237 -90.11987305 376.76318359 C-95.03094374 374.2194072 -100.14194296 372.18611912 -105.2722168 370.13037109 C-105.2722168 369.47037109 -105.2722168 368.81037109 -105.2722168 368.13037109 C-106.5406543 367.79005859 -106.5406543 367.79005859 -107.8347168 367.44287109 C-111.32206371 366.11133864 -113.73918042 364.51343606 -116.65893555 362.25146484 C-118.39439581 360.93315048 -118.39439581 360.93315048 -121.2722168 360.13037109 C-121.6022168 359.47037109 -121.9322168 358.81037109 -122.2722168 358.13037109 C-122.9528418 357.73849609 -123.6334668 357.34662109 -124.3347168 356.94287109 C-127.6729693 354.88309827 -130.37352747 352.44402422 -133.28393555 349.82958984 C-135.39936023 347.94846242 -135.39936023 347.94846242 -138.5222168 346.00537109 C-141.43936101 344.01640913 -143.14394198 341.91914499 -145.2722168 339.13037109 C-146.2622168 338.47037109 -147.2522168 337.81037109 -148.2722168 337.13037109 C-148.2722168 336.47037109 -148.2722168 335.81037109 -148.2722168 335.13037109 C-149.2622168 334.80037109 -150.2522168 334.47037109 -151.2722168 334.13037109 C-152.75232749 332.49823353 -154.15980398 330.7994692 -155.5222168 329.06787109 C-158.90920187 324.81058052 -162.38139776 320.69836193 -166.05737305 316.68896484 C-167.2722168 315.13037109 -167.2722168 315.13037109 -167.2722168 313.13037109 C-167.9322168 313.13037109 -168.5922168 313.13037109 -169.2722168 313.13037109 C-170.67456055 311.11865234 -170.67456055 311.11865234 -172.2097168 308.44287109 C-172.71374023 307.57275391 -173.21776367 306.70263672 -173.73706055 305.80615234 C-174.49696289 304.48164062 -174.49696289 304.48164062 -175.2722168 303.13037109 C-176.10946289 301.82132813 -176.10946289 301.82132813 -176.96362305 300.48583984 C-178.2722168 298.13037109 -178.2722168 298.13037109 -178.2722168 295.13037109 C-178.9322168 295.13037109 -179.5922168 295.13037109 -180.2722168 295.13037109 C-198.94267575 258.20641133 -198.94267575 258.20641133 -198.2722168 248.13037109 C-198.9322168 248.13037109 -199.5922168 248.13037109 -200.2722168 248.13037109 C-204.62740637 227.73149848 -204.62740637 227.73149848 -205.09643555 218.14990234 C-205.05375129 216.13446055 -205.05375129 216.13446055 -206.2722168 215.13037109 C-206.56862292 209.80583933 -206.51522087 204.46261064 -206.5222168 199.13037109 C-206.52455322 198.33369019 -206.52688965 197.53700928 -206.52929688 196.71618652 C-206.54800034 179.73428897 -205.16191899 162.99696834 -203.2722168 146.13037109 C-202.6122168 146.13037109 -201.9522168 146.13037109 -201.2722168 146.13037109 C-201.16264648 145.29634766 -201.05307617 144.46232422 -200.94018555 143.60302734 C-199.97917488 136.78219552 -198.67907952 130.5851393 -196.2722168 124.13037109 C-195.6122168 124.13037109 -194.9522168 124.13037109 -194.2722168 124.13037109 C-193.9422168 121.82037109 -193.6122168 119.51037109 -193.2722168 117.13037109 C-192.6122168 117.13037109 -191.9522168 117.13037109 -191.2722168 117.13037109 C-191.1690918 116.07849609 -191.0659668 115.02662109 -190.9597168 113.94287109 C-190.26283805 110.07836169 -189.35074385 108.37896143 -187.2722168 105.13037109 C-186.6328418 104.08880859 -185.9934668 103.04724609 -185.3347168 101.97412109 C-183.9597168 99.74495443 -182.5847168 97.51578776 -181.2097168 95.28662109 C-179.98348626 93.289052 -178.79112015 91.26994824 -177.6472168 89.22412109 C-177.1934668 88.53318359 -176.7397168 87.84224609 -176.2722168 87.13037109 C-175.6122168 87.13037109 -174.9522168 87.13037109 -174.2722168 87.13037109 C-173.7772168 85.15037109 -173.7772168 85.15037109 -173.2722168 83.13037109 C-172.6122168 83.13037109 -171.9522168 83.13037109 -171.2722168 83.13037109 C-171.0040918 82.38787109 -170.7359668 81.64537109 -170.4597168 80.88037109 C-169.31944929 78.23975161 -168.17841374 76.27484265 -166.2722168 74.13037109 C-165.6122168 74.13037109 -164.9522168 74.13037109 -164.2722168 74.13037109 C-163.7772168 72.64537109 -163.7772168 72.64537109 -163.2722168 71.13037109 C-161.3347168 68.94287109 -161.3347168 68.94287109 -159.2722168 67.13037109 C-158.6122168 67.13037109 -157.9522168 67.13037109 -157.2722168 67.13037109 C-156.9009668 66.20224609 -156.9009668 66.20224609 -156.5222168 65.25537109 C-155.04450917 62.74326813 -153.83266503 62.36929766 -151.2722168 61.13037109 C-150.9422168 60.14037109 -150.6122168 59.15037109 -150.2722168 58.13037109 C-148.3347168 55.94287109 -148.3347168 55.94287109 -146.2722168 54.13037109 C-145.6122168 54.13037109 -144.9522168 54.13037109 -144.2722168 54.13037109 C-144.2722168 53.47037109 -144.2722168 52.81037109 -144.2722168 52.13037109 C-142.53673511 50.68510373 -140.73245716 49.32164889 -138.8972168 48.00537109 C-137.89948242 47.28091797 -136.90174805 46.55646484 -135.8737793 45.81005859 C-133.2722168 44.13037109 -133.2722168 44.13037109 -131.2722168 44.13037109 C-130.9422168 43.14037109 -130.6122168 42.15037109 -130.2722168 41.13037109 C-129.2822168 41.13037109 -128.2922168 41.13037109 -127.2722168 41.13037109 C-127.2722168 40.47037109 -127.2722168 39.81037109 -127.2722168 39.13037109 C-125.2922168 38.47037109 -123.3122168 37.81037109 -121.2722168 37.13037109 C-121.2722168 36.47037109 -121.2722168 35.81037109 -121.2722168 35.13037109 C-114.6472168 31.13037109 -114.6472168 31.13037109 -111.2722168 31.13037109 C-111.2722168 30.47037109 -111.2722168 29.81037109 -111.2722168 29.13037109 C-108.36621419 27.87372132 -106.47617095 27.13037109 -103.2722168 27.13037109 C-103.04791992 26.50646484 -102.82362305 25.88255859 -102.5925293 25.23974609 C-100.81947732 22.40705951 -99.33525452 22.19781666 -96.1472168 21.38037109 C-94.78209961 21.01685547 -94.78209961 21.01685547 -93.3894043 20.64599609 C-92.69073242 20.47583984 -91.99206055 20.30568359 -91.2722168 20.13037109 C-91.2722168 19.47037109 -91.2722168 18.81037109 -91.2722168 18.13037109 C-90.6122168 18.13037109 -89.9522168 18.13037109 -89.2722168 18.13037109 C-88.9422168 17.47037109 -88.6122168 16.81037109 -88.2722168 16.13037109 C-85.95065083 15.72307882 -83.6153381 15.38598433 -81.2722168 15.13037109 C-80.9422168 13.81037109 -80.6122168 12.49037109 -80.2722168 11.13037109 C-79.6122168 11.13037109 -78.9522168 11.13037109 -78.2722168 11.13037109 C-77.9422168 11.79037109 -77.6122168 12.45037109 -77.2722168 13.13037109 C-76.6122168 13.13037109 -75.9522168 13.13037109 -75.2722168 13.13037109 C-75.2722168 12.47037109 -75.2722168 11.81037109 -75.2722168 11.13037109 C-73.2922168 11.13037109 -71.3122168 11.13037109 -69.2722168 11.13037109 C-69.2722168 10.47037109 -69.2722168 9.81037109 -69.2722168 9.13037109 C-68.4884668 9.17162109 -67.7047168 9.21287109 -66.8972168 9.25537109 C-64.11105561 9.41765843 -64.11105561 9.41765843 -62.2722168 7.13037109 C-59.7331543 6.53271484 -59.7331543 6.53271484 -56.6472168 6.06787109 C-55.56956055 5.90287109 -54.4919043 5.73787109 -53.3815918 5.56787109 C-49.68220921 5.04735495 -45.98110536 4.57799558 -42.2722168 4.13037109 C-39.16416245 3.69524348 -36.43795601 3.18953572 -33.48046875 2.13378906 C-23.09556741 -1.11420915 -10.81574505 -0.02870948 0 0 Z " fill="#D31384" transform="translate(369.272216796875,223.86962890625)"/>
<path d="M0 0 C0.66 0 1.32 0 2 0 C1.67 2.64 1.34 5.28 1 8 C0.34 8 -0.32 8 -1 8 C-1 22.85 -1 37.7 -1 53 C-5.89322233 48.10677767 -4.17836244 37.58006944 -4.19189453 30.98242188 C-4.0944709 21.93991818 -3.03941393 12.97422559 -2 4 C-1.34 4 -0.68 4 0 4 C0 2.68 0 1.36 0 0 Z " fill="#880C55" transform="translate(261,393)"/>
<path d="M0 0 C0.33 0 0.66 0 1 0 C1 9.9 1 19.8 1 30 C0.67 29.01 0.34 28.02 0 27 C-0.66 27 -1.32 27 -2 27 C-2.05811773 23.25006521 -2.09363593 19.50024648 -2.125 15.75 C-2.14175781 14.68652344 -2.15851563 13.62304688 -2.17578125 12.52734375 C-2.18222656 11.50253906 -2.18867188 10.47773438 -2.1953125 9.421875 C-2.20578613 8.47924805 -2.21625977 7.53662109 -2.22705078 6.56542969 C-1.99119213 3.90048059 -1.35661659 2.28136908 0 0 Z " fill="#000000" transform="translate(349,452)"/>
<path d="M0 0 C0 3 0 3 -1.74414062 5.0847168 C-2.54013672 5.86500244 -3.33613281 6.64528809 -4.15625 7.44921875 C-5.01347656 8.29677734 -5.87070313 9.14433594 -6.75390625 10.01757812 C-7.66011719 10.89865234 -8.56632813 11.77972656 -9.5 12.6875 C-10.40621094 13.58017578 -11.31242188 14.47285156 -12.24609375 15.39257812 C-14.49085168 17.60189251 -16.74229998 19.80392533 -19 22 C-19.99 21.67 -20.98 21.34 -22 21 C-20.37660195 19.29115995 -18.70680947 17.62553283 -17 16 C-16.34 16 -15.68 16 -15 16 C-14.7525 15.38125 -14.505 14.7625 -14.25 14.125 C-12.77229238 11.61289704 -11.56044823 11.23892656 -9 10 C-8.67 9.01 -8.34 8.02 -8 7 C-6.0625 4.8125 -6.0625 4.8125 -4 3 C-3.34 3 -2.68 3 -2 3 C-2 2.34 -2 1.68 -2 1 C-1.34 0.67 -0.68 0.34 0 0 Z " fill="#BB1174" transform="translate(227,275)"/>
<path d="M0 0 C0.33 0 0.66 0 1 0 C1.91657981 5.38490641 2.11138159 10.54230189 2 16 C2.66 16 3.32 16 4 16 C5.12862175 21.36095333 5.09688221 26.55306686 5 32 C4.67 32 4.34 32 4 32 C-0.77553612 10.5989937 -0.77553612 10.5989937 0 0 Z " fill="#AA0F6A" transform="translate(165,440)"/>
<path d="M0 0 C0 0.33 0 0.66 0 1 C-5.21443596 2.68561267 -9.97539135 3.38512698 -15.4375 3.625 C-16.16904297 3.66367187 -16.90058594 3.70234375 -17.65429688 3.7421875 C-19.43583532 3.83533984 -21.21788122 3.91870286 -23 4 C-23 3.67 -23 3.34 -23 3 C-22.08476562 2.86722656 -21.16953125 2.73445312 -20.2265625 2.59765625 C-19.03804688 2.42105469 -17.84953125 2.24445312 -16.625 2.0625 C-15.44164062 1.88847656 -14.25828125 1.71445312 -13.0390625 1.53515625 C-3.95858499 -0.06384814 -3.95858499 -0.06384814 0 0 Z " fill="#3E0526" transform="translate(410,613)"/>
<path d="M0 0 C0.33 0 0.66 0 1 0 C1.14285714 7.42857143 1.14285714 7.42857143 0 11 C-0.66 11 -1.32 11 -2 11 C-2 12.65 -2 14.3 -2 16 C-2.66 16 -3.32 16 -4 16 C-3.39891424 10.34979382 -1.92471317 5.33835539 0 0 Z " fill="#9C0E61" transform="translate(173,348)"/>
<path d="M0 0 C2.64 0 5.28 0 8 0 C7.67 0.99 7.34 1.98 7 3 C4.69 3 2.38 3 0 3 C0 2.01 0 1.02 0 0 Z " fill="#000000" transform="translate(618,207)"/>
<path d="M0 0 C0 0.66 0 1.32 0 2 C-3.72965139 4.03435531 -5.66905042 5 -10 5 C-10 4.34 -10 3.68 -10 3 C-9.34 3 -8.68 3 -8 3 C-7.67 2.34 -7.34 1.68 -7 1 C-4.61370553 0.38812962 -2.46459429 0 0 0 Z " fill="#85044B" transform="translate(288,239)"/>
<path d="M0 0 C0.99 0.33 1.98 0.66 3 1 C2.67 1.66 2.34 2.32 2 3 C2.66 3.33 3.32 3.66 4 4 C1 6 1 6 -2 6 C-1.34 4.02 -0.68 2.04 0 0 Z " fill="#0E0009" transform="translate(274,240)"/>
<path d="M0 0 C1.98 0 3.96 0 6 0 C5.67 0.99 5.34 1.98 5 3 C3.02 3 1.04 3 -1 3 C-0.67 2.01 -0.34 1.02 0 0 Z " fill="#000000" transform="translate(586,211)"/>
<path d="M0 0 C0.66 0 1.32 0 2 0 C2 2.64 2 5.28 2 8 C1.34 8 0.68 8 0 8 C0 5.36 0 2.72 0 0 Z " fill="#000000" transform="translate(669,230)"/>
<path d="M0 0 C0.33 0 0.66 0 1 0 C1 4.29 1 8.58 1 13 C0.67 13 0.34 13 0 13 C0 8.71 0 4.42 0 0 Z " fill="#000000" transform="translate(370,446)"/>
<path d="M0 0 C2.475 0.495 2.475 0.495 5 1 C4.67 1.66 4.34 2.32 4 3 C2.68 2.67 1.36 2.34 0 2 C0 1.34 0 0.68 0 0 Z " fill="#000000" transform="translate(424,661)"/>
<path d="M0 0 C1.65 0 3.3 0 5 0 C5 0.66 5 1.32 5 2 C3.02 2 1.04 2 -1 2 C-0.67 1.34 -0.34 0.68 0 0 Z " fill="#000000" transform="translate(607,208)"/>
<path d="M0 0 C0.99 0 1.98 0 3 0 C3 0.99 3 1.98 3 3 C2.01 3 1.02 3 0 3 C0 2.01 0 1.02 0 0 Z " fill="#000000" transform="translate(307,656)"/>
<path d="M0 0 C0.99 0 1.98 0 3 0 C3 0.99 3 1.98 3 3 C2.01 3 1.02 3 0 3 C0 2.01 0 1.02 0 0 Z " fill="#000000" transform="translate(247,250)"/>
<path d="M0 0 C0.99 0.33 1.98 0.66 3 1 C2.34 1.66 1.68 2.32 1 3 C0.01 2.67 -0.98 2.34 -2 2 C-1.34 1.34 -0.68 0.68 0 0 Z " fill="#000000" transform="translate(283,237)"/>
<path d="M0 0 C0.99 0 1.98 0 3 0 C3 0.99 3 1.98 3 3 C2.01 3 1.02 3 0 3 C0 2.01 0 1.02 0 0 Z " fill="#000000" transform="translate(645,207)"/>
<path d="M0 0 C2.64 0 5.28 0 8 0 C8 0.33 8 0.66 8 1 C5.36 1 2.72 1 0 1 C0 0.67 0 0.34 0 0 Z " fill="#000000" transform="translate(602,661)"/>
<path d="M0 0 C0.99 0.33 1.98 0.66 3 1 C3 1.66 3 2.32 3 3 C2.01 3 1.02 3 0 3 C0 2.01 0 1.02 0 0 Z " fill="#000000" transform="translate(490,635)"/>
<path d="M0 0 C0.99 0 1.98 0 3 0 C2.67 0.99 2.34 1.98 2 3 C1.34 3 0.68 3 0 3 C0 2.01 0 1.02 0 0 Z " fill="#000000" transform="translate(689,364)"/>
<path d="M0 0 C0.66 0 1.32 0 2 0 C2 0.99 2 1.98 2 3 C1.01 3 0.02 3 -1 3 C-0.67 2.01 -0.34 1.02 0 0 Z " fill="#000000" transform="translate(239,254)"/>
<path d="M0 0 C0.66 0 1.32 0 2 0 C2 0.99 2 1.98 2 3 C1.01 3 0.02 3 -1 3 C-0.67 2.01 -0.34 1.02 0 0 Z " fill="#000000" transform="translate(269,241)"/>
<path d="M0 0 C0.99 0 1.98 0 3 0 C2.67 0.99 2.34 1.98 2 3 C1.34 2.67 0.68 2.34 0 2 C0 1.34 0 0.68 0 0 Z " fill="#000000" transform="translate(543,661)"/>
<path d="M0 0 C0.99 0 1.98 0 3 0 C2.67 0.99 2.34 1.98 2 3 C1.34 2.67 0.68 2.34 0 2 C0 1.34 0 0.68 0 0 Z " fill="#000000" transform="translate(323,661)"/>
<path d="M0 0 C1.32 0 2.64 0 4 0 C3.67 0.99 3.34 1.98 3 3 C2.01 2.01 1.02 1.02 0 0 Z " fill="#000000" transform="translate(525,652)"/>
<path d="M0 0 C0.33 1.32 0.66 2.64 1 4 C0.34 4 -0.32 4 -1 4 C-0.67 2.68 -0.34 1.36 0 0 Z " fill="#000000" transform="translate(153,493)"/>
<path d="M0 0 C0.66 0 1.32 0 2 0 C2 0.99 2 1.98 2 3 C1.34 3 0.68 3 0 3 C0 2.01 0 1.02 0 0 Z " fill="#000000" transform="translate(286,648)"/>
<path d="M0 0 C0.66 0 1.32 0 2 0 C2 0.99 2 1.98 2 3 C1.34 3 0.68 3 0 3 C0 2.01 0 1.02 0 0 Z " fill="#000000" transform="translate(669,559)"/>
<path d="M0 0 C0.33 0 0.66 0 1 0 C1 1.98 1 3.96 1 6 C0.67 6 0.34 6 0 6 C0 4.02 0 2.04 0 0 Z " fill="#000000" transform="translate(144,457)"/>
<path d="M0 0 C0.33 0 0.66 0 1 0 C1 1.98 1 3.96 1 6 C0.67 6 0.34 6 0 6 C0 4.02 0 2.04 0 0 Z " fill="#000000" transform="translate(612,449)"/>
<path d="M0 0 C0.66 0 1.32 0 2 0 C2 0.99 2 1.98 2 3 C1.34 3 0.68 3 0 3 C0 2.01 0 1.02 0 0 Z " fill="#000000" transform="translate(387,413)"/>
<path d="M0 0 C0.66 0 1.32 0 2 0 C2 0.99 2 1.98 2 3 C1.34 3 0.68 3 0 3 C0 2.01 0 1.02 0 0 Z " fill="#000000" transform="translate(218,267)"/>
<path d="M0 0 C1.98 0 3.96 0 6 0 C6 0.33 6 0.66 6 1 C4.02 1 2.04 1 0 1 C0 0.67 0 0.34 0 0 Z " fill="#000000" transform="translate(759,243)"/>
<path d="M0 0 C0.33 0.99 0.66 1.98 1 3 C0.01 2.67 -0.98 2.34 -2 2 C-1.34 1.34 -0.68 0.68 0 0 Z " fill="#000000" transform="translate(508,237)"/>
<path d="M0 0 C1.98 0 3.96 0 6 0 C6 0.33 6 0.66 6 1 C4.02 1 2.04 1 0 1 C0 0.67 0 0.34 0 0 Z " fill="#000000" transform="translate(539,217)"/>
<path d="M0 0 C0.99 0.99 1.98 1.98 3 3 C2.01 3 1.02 3 0 3 C0 2.01 0 1.02 0 0 Z " fill="#000000" transform="translate(659,215)"/>
<path d="M0 0 C1.98 0 3.96 0 6 0 C6 0.33 6 0.66 6 1 C4.02 1 2.04 1 0 1 C0 0.67 0 0.34 0 0 Z " fill="#000000" transform="translate(573,213)"/>
<path d="M0 0 C0.99 0.99 1.98 1.98 3 3 C2.01 3 1.02 3 0 3 C0 2.01 0 1.02 0 0 Z " fill="#000000" transform="translate(655,211)"/>
<path d="M0 0 C1.65 0 3.3 0 5 0 C5 0.33 5 0.66 5 1 C3.35 1 1.7 1 0 1 C0 0.67 0 0.34 0 0 Z " fill="#000000" transform="translate(412,665)"/>
<path d="M0 0 C1.65 0 3.3 0 5 0 C5 0.33 5 0.66 5 1 C3.35 1 1.7 1 0 1 C0 0.67 0 0.34 0 0 Z " fill="#000000" transform="translate(334,665)"/>
<path d="M0 0 C0.99 0 1.98 0 3 0 C3 0.66 3 1.32 3 2 C2.01 1.67 1.02 1.34 0 1 C0 0.67 0 0.34 0 0 Z " fill="#000000" transform="translate(447,656)"/>
<path d="M0 0 C0.33 0 0.66 0 1 0 C1 1.65 1 3.3 1 5 C0.67 5 0.34 5 0 5 C0 3.35 0 1.7 0 0 Z " fill="#000000" transform="translate(695,615)"/>
<path d="M0 0 C0.99 0.495 0.99 0.495 2 1 C2 1.66 2 2.32 2 3 C1.34 3 0.68 3 0 3 C0 2.01 0 1.02 0 0 Z " fill="#000000" transform="translate(689,596)"/>
<path d="M0 0 C1.65 0 3.3 0 5 0 C5 0.33 5 0.66 5 1 C3.35 1 1.7 1 0 1 C0 0.67 0 0.34 0 0 Z " fill="#000000" transform="translate(389,509)"/>
<path d="M0 0 C0.99 0.495 0.99 0.495 2 1 C2 1.66 2 2.32 2 3 C1.34 3 0.68 3 0 3 C0 2.01 0 1.02 0 0 Z " fill="#000000" transform="translate(369,503)"/>
<path d="M0 0 C0.99 0.495 0.99 0.495 2 1 C2 1.66 2 2.32 2 3 C1.34 3 0.68 3 0 3 C0 2.01 0 1.02 0 0 Z " fill="#000000" transform="translate(636,500)"/>
<path d="M0 0 C0.66 0 1.32 0 2 0 C1.67 0.99 1.34 1.98 1 3 C0.67 2.01 0.34 1.02 0 0 Z " fill="#000000" transform="translate(397,499)"/>
<path d="M0 0 C0.33 0.99 0.66 1.98 1 3 C0.34 3 -0.32 3 -1 3 C-0.67 2.01 -0.34 1.02 0 0 Z " fill="#000000" transform="translate(375,434)"/>
<path d="M0 0 C0.33 0.99 0.66 1.98 1 3 C0.34 3 -0.32 3 -1 3 C-0.67 2.01 -0.34 1.02 0 0 Z " fill="#000000" transform="translate(401,394)"/>
<path d="M0 0 C0.33 0.99 0.66 1.98 1 3 C0.34 3 -0.32 3 -1 3 C-0.67 2.01 -0.34 1.02 0 0 Z " fill="#000000" transform="translate(224,263)"/>
<path d="M0 0 C0.66 0 1.32 0 2 0 C1.67 0.99 1.34 1.98 1 3 C0.67 2.01 0.34 1.02 0 0 Z " fill="#000000" transform="translate(777,248)"/>
<path d="M0 0 C0.99 0.33 1.98 0.66 3 1 C2.01 1.33 1.02 1.66 0 2 C0 1.34 0 0.68 0 0 Z " fill="#000000" transform="translate(277,238)"/>
<path d="M0 0 C4 1 4 1 4 1 Z " fill="#000000" transform="translate(566,664)"/>
<path d="M0 0 C0.66 0 1.32 0 2 0 C2 0.66 2 1.32 2 2 C1.34 2 0.68 2 0 2 C0 1.34 0 0.68 0 0 Z " fill="#000000" transform="translate(480,643)"/>
<path d="M0 0 C0.66 0 1.32 0 2 0 C2 0.66 2 1.32 2 2 C1.34 2 0.68 2 0 2 C0 1.34 0 0.68 0 0 Z " fill="#000000" transform="translate(238,618)"/>
<path d="M0 0 C1 4 1 4 1 4 Z " fill="#000000" transform="translate(694,608)"/>
<path d="M0 0 C0.66 0 1.32 0 2 0 C2 0.66 2 1.32 2 2 C1.34 2 0.68 2 0 2 C0 1.34 0 0.68 0 0 Z " fill="#000000" transform="translate(196,576)"/>
<path d="M0 0 C0.66 0 1.32 0 2 0 C2 0.66 2 1.32 2 2 C1.34 2 0.68 2 0 2 C0 1.34 0 0.68 0 0 Z " fill="#000000" transform="translate(158,509)"/>
<path d="M0 0 C0.66 0 1.32 0 2 0 C2 0.66 2 1.32 2 2 C1.34 2 0.68 2 0 2 C0 1.34 0 0.68 0 0 Z " fill="#000000" transform="translate(351,442)"/>
<path d="M0 0 C0.66 0 1.32 0 2 0 C2 0.66 2 1.32 2 2 C1.34 2 0.68 2 0 2 C0 1.34 0 0.68 0 0 Z " fill="#000000" transform="translate(258,246)"/>
<path d="M0 0 C3 1 3 1 3 1 Z " fill="#000000" transform="translate(433,661)"/>
<path d="" fill="#000000" transform="translate(0,0)"/>
<path d="" fill="#000000" transform="translate(0,0)"/>
<path d="" fill="#000000" transform="translate(0,0)"/>
<path d="" fill="#000000" transform="translate(0,0)"/>
<path d="" fill="#000000" transform="translate(0,0)"/>
<path d="" fill="#000000" transform="translate(0,0)"/>
<path d="M0 0 C0.99 0.495 0.99 0.495 2 1 C1.01 1.495 1.01 1.495 0 2 C0 1.34 0 0.68 0 0 Z " fill="#000000" transform="translate(231,613)"/>
<path d="" fill="#000000" transform="translate(0,0)"/>
<path d="" fill="#000000" transform="translate(0,0)"/>
<path d="" fill="#000000" transform="translate(0,0)"/>
<path d="" fill="#000000" transform="translate(0,0)"/>
<path d="" fill="#000000" transform="translate(0,0)"/>
<path d="" fill="#000000" transform="translate(0,0)"/>
<path d="" fill="#000000" transform="translate(0,0)"/>
<path d="" fill="#000000" transform="translate(0,0)"/>
<path d="M0 0 C0.99 0.495 0.99 0.495 2 1 C1.01 1.495 1.01 1.495 0 2 C0 1.34 0 0.68 0 0 Z " fill="#000000" transform="translate(666,390)"/>
<path d="M0 0 C0.99 0.495 0.99 0.495 2 1 C1.01 1.495 1.01 1.495 0 2 C0 1.34 0 0.68 0 0 Z " fill="#000000" transform="translate(672,384)"/>
<path d="M0 0 C3 1 3 1 3 1 Z " fill="#000000" transform="translate(685,369)"/>
<path d="" fill="#000000" transform="translate(0,0)"/>
<path d="M0 0 C0.33 0.66 0.66 1.32 1 2 C0.34 1.67 -0.32 1.34 -1 1 C-0.67 0.67 -0.34 0.34 0 0 Z " fill="#000000" transform="translate(760,288)"/>
<path d="M0 0 C0.66 0.66 1.32 1.32 2 2 C1.34 2 0.68 2 0 2 C0 1.34 0 0.68 0 0 Z " fill="#000000" transform="translate(244,251)"/>
<path d="M0 0 C3 1 3 1 3 1 Z " fill="#000000" transform="translate(264,243)"/>
<path d="M0 0 C3 1 3 1 3 1 Z " fill="#000000" transform="translate(291,234)"/>
<path d="M0 0 C0.33 0.66 0.66 1.32 1 2 C0.34 1.67 -0.32 1.34 -1 1 C-0.67 0.67 -0.34 0.34 0 0 Z " fill="#000000" transform="translate(512,233)"/>
<path d="M0 0 C0.66 0.66 1.32 1.32 2 2 C1.34 2 0.68 2 0 2 C0 1.34 0 0.68 0 0 Z " fill="#000000" transform="translate(662,218)"/>
<path d="M0 0 C2 1 2 1 2 1 Z " fill="#000000" transform="translate(538,661)"/>
<path d="M0 0 C2 1 2 1 2 1 Z " fill="#000000" transform="translate(520,648)"/>
<path d="M0 0 C2 1 2 1 2 1 Z " fill="#000000" transform="translate(517,645)"/>
<path d="M0 0 C2 1 2 1 2 1 Z " fill="#000000" transform="translate(686,635)"/>
<path d="M0 0 C2 1 2 1 2 1 Z " fill="#000000" transform="translate(493,635)"/>
<path d="M0 0 C2 1 2 1 2 1 Z " fill="#000000" transform="translate(689,632)"/>
<path d="" fill="#000000" transform="translate(0,0)"/>
<path d="M0 0 C2 1 2 1 2 1 Z " fill="#000000" transform="translate(241,622)"/>
<path d="" fill="#000000" transform="translate(0,0)"/>
<path d="M0 0 C2 1 2 1 2 1 Z " fill="#000000" transform="translate(198,579)"/>
<path d="M0 0 C2 1 2 1 2 1 Z " fill="#000000" transform="translate(676,572)"/>
<path d="" fill="#000000" transform="translate(0,0)"/>
<path d="" fill="#000000" transform="translate(0,0)"/>
<path d="M0 0 C2 1 2 1 2 1 Z " fill="#000000" transform="translate(649,525)"/>
<path d="" fill="#000000" transform="translate(0,0)"/>
<path d="M0 0 C2 1 2 1 2 1 Z " fill="#000000" transform="translate(646,519)"/>
<path d="" fill="#000000" transform="translate(0,0)"/>
<path d="" fill="#000000" transform="translate(0,0)"/>
<path d="M0 0 C2 1 2 1 2 1 Z " fill="#000000" transform="translate(384,482)"/>
<path d="" fill="#000000" transform="translate(0,0)"/>
<path d="M0 0 C2 1 2 1 2 1 Z " fill="#000000" transform="translate(377,472)"/>
<path d="M0 0 C2 1 2 1 2 1 Z " fill="#000000" transform="translate(616,465)"/>
<path d="M0 0 C2 1 2 1 2 1 Z " fill="#000000" transform="translate(371,459)"/>
<path d="" fill="#000000" transform="translate(0,0)"/>
<path d="M0 0 C2 1 2 1 2 1 Z " fill="#000000" transform="translate(380,426)"/>
<path d="M0 0 C2 1 2 1 2 1 Z " fill="#000000" transform="translate(367,416)"/>
<path d="" fill="#000000" transform="translate(0,0)"/>
<path d="" fill="#000000" transform="translate(0,0)"/>
<path d="M0 0 C2 1 2 1 2 1 Z " fill="#000000" transform="translate(384,400)"/>
<path d="M0 0 C2 1 2 1 2 1 Z " fill="#000000" transform="translate(394,393)"/>
<path d="M0 0 C2 1 2 1 2 1 Z " fill="#000000" transform="translate(397,392)"/>
<path d="" fill="#000000" transform="translate(0,0)"/>
<path d="M0 0 C2 1 2 1 2 1 Z " fill="#000000" transform="translate(400,390)"/>
<path d="" fill="#000000" transform="translate(0,0)"/>
<path d="" fill="#000000" transform="translate(0,0)"/>
<path d="M0 0 C2 1 2 1 2 1 Z " fill="#000000" transform="translate(699,356)"/>
<path d="M0 0 C2 1 2 1 2 1 Z " fill="#000000" transform="translate(702,353)"/>
<path d="" fill="#000000" transform="translate(0,0)"/>
<path d="M0 0 C2 1 2 1 2 1 Z " fill="#000000" transform="translate(162,329)"/>
<path d="" fill="#000000" transform="translate(0,0)"/>
<path d="M0 0 C2 1 2 1 2 1 Z " fill="#000000" transform="translate(732,320)"/>
<path d="M0 0 C2 1 2 1 2 1 Z " fill="#000000" transform="translate(168,319)"/>
<path d="M0 0 C2 1 2 1 2 1 Z " fill="#000000" transform="translate(741,309)"/>
<path d="M0 0 C2 1 2 1 2 1 Z " fill="#000000" transform="translate(752,297)"/>
<path d="" fill="#000000" transform="translate(0,0)"/>
<path d="M0 0 C2 1 2 1 2 1 Z " fill="#000000" transform="translate(215,269)"/>
<path d="M0 0 C2 1 2 1 2 1 Z " fill="#000000" transform="translate(772,243)"/>
<path d="" fill="#000000" transform="translate(0,0)"/>
<path d="M0 0 C2 1 2 1 2 1 Z " fill="#FF0000" transform="translate(329,227)"/>
<path d="" fill="#000000" transform="translate(0,0)"/>
<path d="" fill="#000000" transform="translate(0,0)"/>
<path d="" fill="#000000" transform="translate(0,0)"/>
<path d="" fill="#000000" transform="translate(0,0)"/>
<path d="" fill="#000000" transform="translate(0,0)"/>
<path d="" fill="#000000" transform="translate(0,0)"/>
<path d="" fill="#000000" transform="translate(0,0)"/>
<path d="" fill="#000000" transform="translate(0,0)"/>
<path d="" fill="#000000" transform="translate(0,0)"/>
<path d="" fill="#000000" transform="translate(0,0)"/>
<path d="" fill="#000000" transform="translate(0,0)"/>
<path d="" fill="#000000" transform="translate(0,0)"/>
<path d="" fill="#000000" transform="translate(0,0)"/>
<path d="" fill="#000000" transform="translate(0,0)"/>
<path d="" fill="#000000" transform="translate(0,0)"/>
<path d="" fill="#000000" transform="translate(0,0)"/>
<path d="" fill="#000000" transform="translate(0,0)"/>
<path d="" fill="#000000" transform="translate(0,0)"/>
<path d="" fill="#000000" transform="translate(0,0)"/>
<path d="" fill="#000000" transform="translate(0,0)"/>
<path d="" fill="#000000" transform="translate(0,0)"/>
<path d="" fill="#000000" transform="translate(0,0)"/>
<path d="" fill="#000000" transform="translate(0,0)"/>
<path d="" fill="#000000" transform="translate(0,0)"/>
<path d="" fill="#000000" transform="translate(0,0)"/>
<path d="" fill="#000000" transform="translate(0,0)"/>
<path d="" fill="#000000" transform="translate(0,0)"/>
<path d="" fill="#000000" transform="translate(0,0)"/>
<path d="" fill="#000000" transform="translate(0,0)"/>
<path d="" fill="#000000" transform="translate(0,0)"/>
<path d="" fill="#000000" transform="translate(0,0)"/>
<path d="" fill="#000000" transform="translate(0,0)"/>
<path d="" fill="#000000" transform="translate(0,0)"/>
<path d="" fill="#000000" transform="translate(0,0)"/>
<path d="" fill="#000000" transform="translate(0,0)"/>
<path d="" fill="#000000" transform="translate(0,0)"/>
<path d="" fill="#000000" transform="translate(0,0)"/>
<path d="" fill="#000000" transform="translate(0,0)"/>
<path d="" fill="#000000" transform="translate(0,0)"/>
<path d="" fill="#000000" transform="translate(0,0)"/>
<path d="" fill="#000000" transform="translate(0,0)"/>
<path d="" fill="#000000" transform="translate(0,0)"/>
<path d="" fill="#000000" transform="translate(0,0)"/>
<path d="" fill="#000000" transform="translate(0,0)"/>
<path d="" fill="#000000" transform="translate(0,0)"/>
<path d="" fill="#000000" transform="translate(0,0)"/>
<path d="" fill="#000000" transform="translate(0,0)"/>
<path d="" fill="#000000" transform="translate(0,0)"/>
<path d="" fill="#000000" transform="translate(0,0)"/>
<path d="" fill="#000000" transform="translate(0,0)"/>
<path d="" fill="#000000" transform="translate(0,0)"/>
<path d="" fill="#000000" transform="translate(0,0)"/>
<path d="" fill="#000000" transform="translate(0,0)"/>
<path d="" fill="#000000" transform="translate(0,0)"/>
<path d="" fill="#000000" transform="translate(0,0)"/>
<path d="" fill="#000000" transform="translate(0,0)"/>
<path d="" fill="#000000" transform="translate(0,0)"/>
<path d="" fill="#000000" transform="translate(0,0)"/>
<path d="" fill="#000000" transform="translate(0,0)"/>
<path d="" fill="#000000" transform="translate(0,0)"/>
<path d="" fill="#000000" transform="translate(0,0)"/>
<path d="" fill="#000000" transform="translate(0,0)"/>
<path d="" fill="#000000" transform="translate(0,0)"/>
<path d="" fill="#000000" transform="translate(0,0)"/>
<path d="" fill="#000000" transform="translate(0,0)"/>
<path d="" fill="#000000" transform="translate(0,0)"/>
<path d="" fill="#000000" transform="translate(0,0)"/>
<path d="" fill="#000000" transform="translate(0,0)"/>
<path d="" fill="#000000" transform="translate(0,0)"/>
<path d="" fill="#000000" transform="translate(0,0)"/>
<path d="" fill="#000000" transform="translate(0,0)"/>
<path d="" fill="#000000" transform="translate(0,0)"/>
<path d="" fill="#000000" transform="translate(0,0)"/>
<path d="" fill="#000000" transform="translate(0,0)"/>
</svg>
